# xmcd CD database file
#
# Track frame offsets:
#	150
#	9665
#	26620
#	45812
#	59187
#	76482
#	90860
#	104400
#	114632
#	132540
#	142777
#	155875
#	174247
#	191850
#
# Disc length: 2790 seconds
#
# Revision: 1
# Processed by: cddbd v1.5.2PL0 Copyright (c) Steve Scherf et al.
# Submitted via: CDex 1.51
#
DISCID=b80ae40e
DTITLE=Zither Anderl - Die tanzenden Finger
DYEAR=1900
DGENRE=
TTITLE0=Die tanzenden Finger
TTITLE1=Der alte Vater
TTITLE2=Der dritte Mann
TTITLE3=Zither Tr‰ume
TTITLE4=Tanz mit mir Corina
TTITLE5=ch muﬂ die Berge sehen
TTITLE6=Die Negeroma
TTITLE7=Sauwetter
TTITLE8=Anna Maria
TTITLE9=Country Boarischer
TTITLE10=Country Boarischer
TTITLE11=Volksmusik Rock
TTITLE12=Macht da irgend wer ein Licht
TTITLE13=Tanz mit mir in den Morgen
EXTD=
EXTT0=
EXTT1=
EXTT2=
EXTT3=
EXTT4=
EXTT5=
EXTT6=
EXTT7=
EXTT8=
EXTT9=
EXTT10=
EXTT11=
EXTT12=
EXTT13=
PLAYORDER=
